Coordinates
version=1
nRows=60
nColumns=12
inDegrees=yes

Units are S.I. units (second, meters, Newtons, ...)
Angles are in degrees

endheader
time	SC_y	SC_z	SC_x	AC_y	AC_z	AC_x	GH_y	GH_z	GH_yy	EL_x	PS_y
       0.0              -54.47          23.42          79.34          32.73         -2.216         -2.656          132.6          67.35          36.91          61.44          146.3
  0.003574              -54.46          23.41          79.35          32.73         -2.215         -2.659          132.6          67.33          36.91          61.45          146.3
  0.007149              -54.46          23.41          79.35          32.74         -2.214         -2.661          132.5          67.32          36.92          61.46          146.3
   0.01072              -54.46          23.41          79.35          32.74         -2.214         -2.664          132.5          67.31          36.92          61.47          146.3
    0.0143              -54.45          23.41          79.35          32.74         -2.213         -2.667          132.5          67.29          36.93          61.49          146.2
   0.01787              -54.45          23.41          79.35          32.74         -2.212          -2.67          132.4          67.28          36.93           61.5          146.2
   0.02145              -54.45          23.41          79.35          32.75         -2.211         -2.673          132.4          67.26          36.94          61.52          146.2
   0.02502              -54.44          23.41          79.35          32.75         -2.209         -2.676          132.3          67.25          36.94          61.53          146.2
    0.0286              -54.44          23.41          79.35          32.75         -2.208          -2.68          132.2          67.23          36.95          61.55          146.2
   0.03217              -54.43          23.41          79.35          32.76         -2.207         -2.684          132.2          67.21          36.96          61.57          146.1
   0.03574              -54.43           23.4          79.35          32.76         -2.206         -2.688          132.1          67.19          36.97          61.59          146.1
   0.03932              -54.42           23.4          79.35          32.77         -2.204         -2.693          132.0          67.16          36.97          61.61          146.1
   0.04289              -54.42           23.4          79.35          32.77         -2.202         -2.698          132.0          67.14          36.98          61.63          146.0
   0.04647              -54.41           23.4          79.36          32.78         -2.201         -2.703          131.9          67.11          36.99          61.66          146.0
   0.05004               -54.4           23.4          79.36          32.78         -2.199         -2.709          131.8          67.08           37.0          61.68          146.0
   0.05362               -54.4          23.39          79.36          32.79         -2.197         -2.715          131.7          67.05          37.02          61.71          145.9
   0.05719              -54.39          23.39          79.36          32.79         -2.195         -2.722          131.6          67.02          37.03          61.74          145.9
   0.06077              -54.38          23.39          79.36           32.8         -2.192          -2.73          131.5          66.98          37.04          61.78          145.8
   0.06434              -54.37          23.39          79.36          32.81         -2.189         -2.738          131.3          66.94          37.06          61.81          145.8
   0.06791              -54.36          23.38          79.37          32.82         -2.187         -2.747          131.2          66.89          37.07          61.86          145.7
   0.07149              -54.35          23.38          79.37          32.83         -2.183         -2.756          131.0          66.84          37.09           61.9          145.6
   0.07506              -54.34          23.38          79.37          32.84          -2.18         -2.767          130.9          66.79          37.11          61.95          145.6
   0.07864              -54.32          23.37          79.37          32.85         -2.176         -2.779          130.7          66.73          37.13           62.0          145.5
   0.08221              -54.31          23.37          79.38          32.86         -2.172         -2.792          130.5          66.66          37.16          62.07          145.4
   0.08579              -54.29          23.36          79.38          32.87         -2.167         -2.807          130.2          66.59          37.18          62.13          145.3
   0.08936              -54.27          23.36          79.38          32.89         -2.162         -2.823          130.0          66.51          37.21          62.21          145.2
   0.09293              -54.25          23.35          79.39          32.91         -2.156         -2.842          129.7          66.42          37.25          62.29          145.0
   0.09651              -54.23          23.34          79.39          32.93         -2.149         -2.862          129.3          66.31          37.28          62.39          144.9
    0.1001               -54.2          23.33           79.4          32.95         -2.142         -2.885          129.0           66.2          37.33          62.49          144.7
    0.1037              -54.17          23.32           79.4          32.97         -2.133         -2.912          128.5          66.06          37.37          62.62          144.6
    0.1072              -54.14          23.31          79.41           33.0         -2.123         -2.942          128.1          65.91          37.43          62.76          144.3
    0.1108               -54.1           23.3          79.42          33.03         -2.112         -2.976          127.5          65.74          37.49          62.91          144.1
    0.1144              -54.05          23.29          79.43          33.07         -2.099         -3.016          126.9          65.54          37.57           63.1          143.8
     0.118               -54.0          23.27          79.44          33.12         -2.084         -3.063          126.1          65.31          37.65          63.31          143.5
    0.1215              -53.93          23.25          79.45          33.17         -2.066         -3.117          125.3          65.03          37.75          63.56          143.1
    0.1251              -53.86          23.23          79.46          33.23         -2.046         -3.181          124.2          64.71          37.87          63.86          142.7
    0.1287              -53.77           23.2          79.48           33.3         -2.021         -3.257          123.0          64.33          38.01          64.21          142.2
    0.1323              -53.67          23.17           79.5          33.39         -1.991         -3.348          121.6          63.87          38.17          64.63          141.5
    0.1358              -53.54          23.13          79.53          33.49         -1.955         -3.458          119.8          63.32          38.37          65.14          140.8
    0.1394              -53.38          23.08          79.56          33.62         -1.912         -3.593          117.6          62.65          38.62          65.76          139.8
     0.143              -53.19          23.02           79.6          33.77         -1.858         -3.759          115.0          61.81          38.92          66.52          138.7
    0.1466              -52.95          22.95          79.64          33.97          -1.79         -3.967          111.7          60.77           39.3          67.48          137.3
    0.1501              -52.65          22.85           79.7          34.22         -1.706         -4.228          107.5          59.46          39.78          68.68          135.5
    0.1537              -52.26          22.73          79.78          34.53         -1.598          -4.56          102.2          57.79          40.39          70.22          133.2
    0.1573              -51.77          22.58          79.88          34.93          -1.46         -4.984          95.37          55.66          41.16          72.17          130.2
    0.1608              -51.14          22.38           80.0          35.45         -1.283          -5.53          86.65          52.93          42.16          74.69          126.5
    0.1644              -50.34          22.14          80.16           36.1         -1.056         -6.226          75.51          49.43          43.43           77.9          121.6
     0.168              -49.32          21.82          80.36          36.93         -0.772         -7.102          61.49          45.04          45.03          81.94          115.6
    0.1716              -48.09          21.44          80.61          37.94        -0.4254         -8.169          44.42          39.68          46.98          86.86          108.2
    0.1751              -46.66          20.99          80.89          39.11       -0.02358         -9.406          24.63          33.47          49.24          92.56          99.67
    0.1787              -45.11          20.51           81.2          40.37         0.4115         -10.75          3.194          26.75          51.69          98.74          90.41
    0.1823              -43.56          20.03           81.5          41.64         0.8465         -12.08         -18.24          20.03          54.14          104.9          81.16
    0.1859              -42.13          19.59          81.79          42.81          1.248         -13.32         -38.03          13.82           56.4          110.6          72.61
    0.1894               -40.9          19.21          82.03          43.82          1.595         -14.39          -55.1          8.464          58.35          115.5          65.23
     0.193              -39.88          18.89          82.23          44.64          1.879         -15.26         -69.12          4.069          59.95          119.6          59.18
    0.1966              -39.08          18.64          82.39           45.3          2.106         -15.96         -80.26         0.5737          61.23          122.8          54.37
    0.2002              -38.45          18.45          82.52          45.82          2.283         -16.51         -88.98         -2.163          62.22          125.3           50.6
    0.2037              -37.96           18.3          82.61          46.22          2.421         -16.93         -95.78         -4.295           63.0          127.3          47.66
    0.2073              -37.57          18.18          82.69          46.53          2.528         -17.26         -101.1         -5.961          63.61          128.8          45.37
    0.2109              -37.27          18.08          82.75          46.78          2.613         -17.52         -105.3         -7.271          64.08          130.0          43.56
